<svg xmlns="http://www.w3.org/2000/svg" viewBox="0 0 120 120">
  <circle cx="60" cy="60" r="58" fill="#00246a"/>
  <g fill="none" stroke="#fff" stroke-width="5" stroke-linecap="round" stroke-linejoin="round">
    <path d="M22 44 V32 a8 8 0 0 1 8-8 H42"/>
    <path d="M78 24 H90 a8 8 0 0 1 8 8 V44"/>
    <path d="M98 76 V88 a8 8 0 0 1-8 8 H78"/>
    <path d="M42 96 H30 a8 8 0 0 1-8-8 V76"/>
    <path d="M28 60 C38 44 82 44 92 60 C82 76 38 76 28 60 Z"/>
  </g>
  <circle cx="60" cy="60" r="10" fill="#f39929"/>
</svg>
